<?xml version="1.0" encoding="UTF-8" standalone="no"?>
<svg
   width="553.78497"
   height="516.69238"
   version="1.1"
   id="svg75"
   sodipodi:docname="logo.svg"
   viewBox="0 0 553.78497 516.69239"
   inkscape:version="1.1.1 (c3084ef, 2021-09-22)"
   xmlns:inkscape="http://www.inkscape.org/namespaces/inkscape"
   xmlns:sodipodi="http://sodipodi.sourceforge.net/DTD/sodipodi-0.dtd"
   xmlns="http://www.w3.org/2000/svg"
   xmlns:svg="http://www.w3.org/2000/svg"
   xmlns:rdf="http://www.w3.org/1999/02/22-rdf-syntax-ns#"
   xmlns:cc="http://creativecommons.org/ns#"
   xmlns:dc="http://purl.org/dc/elements/1.1/">
  <defs
     id="defs79" />
  <sodipodi:namedview
     pagecolor="#ffffff"
     bordercolor="#666666"
     borderopacity="1"
     objecttolerance="10"
     gridtolerance="10"
     guidetolerance="10"
     inkscape:pageopacity="0"
     inkscape:pageshadow="2"
     inkscape:window-width="1920"
     inkscape:window-height="1027"
     id="namedview77"
     showgrid="false"
     fit-margin-top="10"
     fit-margin-left="10"
     fit-margin-right="10"
     fit-margin-bottom="10"
     inkscape:zoom="1.7791439"
     inkscape:cx="218.92551"
     inkscape:cy="225.67033"
     inkscape:window-x="0"
     inkscape:window-y="25"
     inkscape:window-maximized="1"
     inkscape:current-layer="svg75"
     inkscape:snap-global="false"
     inkscape:pagecheckerboard="0" />
  <metadata
     id="metadata1906">image/svg+xml<rdf:RDF>
  <cc:Work
     rdf:about="">
    <dc:format>image/svg+xml</dc:format>
    <dc:type
       rdf:resource="http://purl.org/dc/dcmitype/StillImage" />
    <cc:license
       rdf:resource="http://creativecommons.org/publicdomain/zero/1.0/" />
  </cc:Work>
  <cc:License
     rdf:about="http://creativecommons.org/publicdomain/zero/1.0/">
    <cc:permits
       rdf:resource="http://creativecommons.org/ns#Reproduction" />
    <cc:permits
       rdf:resource="http://creativecommons.org/ns#Distribution" />
    <cc:permits
       rdf:resource="http://creativecommons.org/ns#DerivativeWorks" />
  </cc:License>
</rdf:RDF>
</metadata>
  <path
     style="fill:#ff0000;fill-rule:evenodd;stroke:#000000;stroke-width:6.3963"
     inkscape:connector-curvature="0"
     d="m 287.6684,145.81109 c 0,0 -41.11096,-43.01287 -133.18682,97.75393 0,0 100.25644,-93.7348 110.20969,-59.45677"
     id="path2408" />
  <path
     style="fill:#d20000;fill-rule:evenodd;stroke-width:6.3963"
     inkscape:connector-curvature="0"
     d="m 154.60776,241.08115 c 0,0 91.05326,-97.25179 118.14751,-70.3985 2.98982,2.96329 -7.6952,13.06342 -7.6952,13.06342 l -13.23005,-8.24728 -36.99059,19.80623 z"
     id="path3213" />
  <path
     style="fill:none;fill-rule:evenodd;stroke:#000000;stroke-width:6.3963"
     inkscape:connector-curvature="0"
     id="path3215"
     d="m 287.6684,145.81109 c 0,0 -41.11096,-43.01287 -133.18682,97.75393 0,0 100.25644,-93.7348 110.20969,-59.45677" />
  <path
     style="fill:#ff0000;fill-rule:evenodd;stroke:#000000;stroke-width:6.3963"
     inkscape:connector-curvature="0"
     id="path2410-9"
     d="m 402.96656,262.34273 c 0,0 42.26011,41.88392 -100.15299,131.39228 0,0 95.53732,-98.54026 61.44542,-109.11344" />
  <path
     style="fill:#d20000;fill-rule:evenodd;stroke-width:6.3963"
     inkscape:connector-curvature="0"
     d="m 400.86303,283.71277 -29.63197,13.36651 -0.36567,-9.08068 -8.11772,-3.04139 40.12212,-24.45459 5.97016,20.88328 c 0,0 5.35351,41.15488 -101.54487,109.94636 102.47378,-79.3927 93.1747,-108.01994 93.56795,-107.61949 z"
     id="path3209-3" />
  <path
     style="fill:none;fill-rule:evenodd;stroke:#000000;stroke-width:6.3963"
     inkscape:connector-curvature="0"
     d="m 402.96656,262.34273 c 0,0 42.26011,41.88392 -100.15299,131.39228 0,0 95.53732,-98.54026 61.44542,-109.11344"
     id="path3211-0" />
  <g
     transform="matrix(-0.53934331,-0.53934331,0.63371805,-0.63371805,115.87799,592.2324)"
     id="svg_29">
    <metadata
       id="svg_28">image/svg+xml</metadata>
    <path
       style="fill:#e73900;fill-rule:evenodd;stroke-width:1.00000039pt"
       inkscape:connector-curvature="0"
       d="M 58.95454,347.23395 C -9.037541,242.85088 73.060089,233.52847 52.118831,90.624024 103.47625,158.04097 117.81456,240.7354 139.37527,265.19403 c 14.88034,19.20859 22.2192,42.3949 20.21849,66.21726 -0.20173,18.85366 23.6251,41.6983 17.10981,59.3005 -34.64389,-27.74878 -94.232524,-9.66226 -117.74903,-43.47784 z"
       id="svg_27" />
    <path
       style="fill:#e73900;fill-rule:evenodd;stroke-width:1.00000021pt"
       inkscape:connector-curvature="0"
       d="m 161.7809,377.71368 c 0.39303,-19.99023 -23.79616,-28.66238 -33.52622,-44.27447 -16.1147,-11.92496 -21.21929,-30.48685 -21.57498,-48.76584 -1.3098,-29.23367 24.74826,-203.54258 62.71112,-250.35614 -14.5484,71.88596 21.56903,167.64252 43.88286,199.32079 15.09956,24.61357 20.77625,52.95274 15.3373,80.83769 -2.67223,22.24722 -21.10112,35.61532 -31.07051,55.56906 -9.97252,12.01678 -23.5441,13.15533 -35.75957,7.66891 z"
       id="svg_26" />
    <path
       style="fill:#e73900;fill-rule:evenodd;stroke-width:1.00000021pt"
       inkscape:connector-curvature="0"
       d="m 175.5607,387.49258 c 5.78662,-17.36703 -5.66486,-44.89495 -9.27092,-61.00222 -9.78333,-14.50379 -8.83797,-32.01615 -4.1256,-48.07773 6.93673,-25.87512 8.08193,-147.98087 120.02512,-205.321894 -86.81754,85.182644 -29.17041,154.410894 -19.77231,187.745504 5.49048,25.33325 2.68381,51.73715 -9.69748,74.51981 -17.09363,31.45379 -62.73308,48.78924 -77.15881,52.13653 z"
       id="svg_25" />
    <path
       style="fill:#e78c00;fill-rule:evenodd;stroke-width:1.00000003pt"
       inkscape:connector-curvature="0"
       d="m 157.11595,377.31308 c 0.29729,-16.31976 -17.99898,-23.39954 -25.35861,-36.14505 -12.18886,-9.73538 -16.04987,-24.88901 -16.31891,-39.81174 -0.99071,-23.86596 23.32575,-150.04612 42.82692,-204.387219 -13.30745,123.179279 20.92102,136.860989 37.79878,162.722669 11.42102,20.09418 15.71477,43.22989 11.60085,65.99475 -2.02123,18.16233 -10.73396,34.71701 -18.27463,51.00696 -7.54301,9.81034 -23.03485,5.09867 -32.2744,0.61963 z"
       id="svg_24" />
    <path
       style="fill:#e78c00;fill-rule:evenodd;stroke-width:1.00000039pt"
       inkscape:connector-curvature="0"
       d="m 86.962914,353.92651 c -69.840643,-71.70462 6.256737,-76.69827 -13.112495,-175.17469 23.002991,46.41659 42.077881,81.28575 50.453851,114.24382 12.39538,11.63806 55.22529,82.68295 52.65835,95.56353 -26.99225,-15.36667 -69.8897,-13.98593 -89.999706,-34.63266 z"
       id="svg_23" />
    <path
       style="fill:#e7e100;fill-rule:evenodd;stroke-width:1.00000039pt"
       inkscape:connector-curvature="0"
       d="M 100.90993,349.60901 C 59.13153,309.94962 90.33152,286.66406 89.958259,237.12917 c 11.549271,43.35273 48.079751,54.03501 47.610721,80.07765 6.03492,7.79028 37.63431,63.34457 34.99195,70.48333 -14.05024,-11.25384 -55.82177,-23.05477 -71.651,-38.08114 z"
       id="svg_22" />
    <path
       style="fill:#e78c00;fill-rule:evenodd;stroke-width:1.00000021pt"
       inkscape:connector-curvature="0"
       d="m 168.06467,344.26385 c -7.3404,-10.88214 -6.63111,-24.0216 -3.09543,-36.07254 5.2046,-19.414 28.07133,-127.32403 60.7381,-150.79486 -23.59104,44.36028 7.42985,112.59653 14.4812,137.60736 4.11949,19.00745 5.27165,41.48987 -7.27597,55.91193 -18.95542,21.78708 -42.88182,34.47507 -56.29,37.51706 -8.52365,5.98154 -5.85229,-32.08371 -8.5579,-44.16895 z"
       id="svg_21" />
    <path
       style="fill:#e7e100;fill-rule:evenodd;stroke-width:0.99999985pt"
       inkscape:connector-curvature="0"
       d="m 156.26263,378.50754 c 0.58986,-9.98438 -10.43516,-14.77625 -14.6226,-22.76364 -7.21938,-6.26514 -9.20458,-15.6395 -8.99637,-24.78269 -0.0101,-14.63678 -0.50958,-105.87648 18.02599,-128.55794 -8.20394,35.6561 22.69143,88.80791 32.37858,105.06359 6.49039,12.58816 8.54106,26.86035 5.4534,40.6954 -1.69139,11.06943 -7.43953,20.98737 -12.46341,30.77249 -4.86341,5.8179 -14.23059,2.54602 -19.77558,-0.42721 z"
       id="svg_20" />
    <path
       style="fill:#e7e100;fill-rule:evenodd;stroke-width:0.99999985pt"
       inkscape:connector-curvature="0"
       d="m 165.07971,379.78284 c 4.74578,-6.95044 -1.13754,-15.17905 -0.70358,-22.75531 -2.49935,-7.64521 0.12405,-15.26957 4.23044,-21.77805 6.32576,-10.56763 17.44223,-89.10139 40.63311,-97.45039 -21.34854,22.18303 15.72362,81.49476 15.68122,97.41783 -0.76264,11.89306 -15.23012,27.96655 -23.44464,36.61523 -6.01024,7.2569 -17.9049,14.23078 -25.76445,19.11887 -6.02721,-3.66385 -7.91678,-6.6232 -10.6321,-11.16818 z"
       id="svg_19" />
    <path
       style="fill:#ffff9e;fill-rule:evenodd;stroke-width:1.0000011pt"
       inkscape:connector-curvature="0"
       d="m 157.0795,371.83478 c -14.75608,-23.24143 -9.28153,-49.17026 -3.00633,-77.45117 2.85862,19.18917 14.76661,42.47567 21.49823,50.11206 4.64589,5.99725 6.93719,13.23639 6.31254,20.67413 -0.063,5.88641 -3.05125,13.01889 -5.08543,18.51459 -10.81639,-8.66364 -12.37677,-1.29184 -19.71901,-11.84961 z"
       id="svg_18" />
    <path
       style="fill:#ffff9e;fill-rule:evenodd;stroke-width:1.0000011pt"
       inkscape:connector-curvature="0"
       d="m 173.66742,360.30753 c 11.43123,-25.04462 0.11491,-44.76145 26.31412,-64.40897 -7.82358,18.21469 10.06971,46.97555 8.12272,56.94846 -3.27428,16.7716 -25.88508,29.25442 -31.60083,30.54705 1.36171,-13.79126 -7.68024,-11.17401 -2.83601,-23.08654 z"
       id="svg_17" />
    <path
       style="fill:#ffff9e;fill-rule:evenodd;stroke-width:1.0000011pt"
       inkscape:connector-curvature="0"
       d=""
       id="svg_16" />
  </g>
  <path
     d="M 536.4589,13.784969 C 513.91091,11.949778 333.25979,5.0516557 233.54443,242.58006 l 69.52793,70.80032 0.25549,0.26016 C 542.62421,218.24909 538.99046,37.516155 537.56463,14.937866 l -1.10581,-1.15282 z"
     id="path3217"
     inkscape:connector-curvature="0"
     style="fill:#ececec;fill-rule:evenodd;stroke:#000000;stroke-width:6.39629841" />
  <path
     id="path2382"
     d="M 536.4589,13.784969 C 513.91091,11.949778 333.25979,5.0516557 233.54443,242.58006 l 69.52793,70.80032 0.25549,0.26016 C 542.62421,218.24909 538.99046,37.516155 537.56463,14.937866 l -1.10581,-1.15282 z"
     inkscape:connector-curvature="0"
     style="fill:none;fill-rule:evenodd;stroke:#000000;stroke-width:6.39629841" />
  <path
     id="path2419"
     d="m 420.4018,34.810581 51.30168,-16.553721 53.19841,-5.043396 12.34475,1.250106 -3.99875,54.272553 -15.59922,54.651207 -5.82759,8.86964 -93.55389,-96.136796"
     inkscape:connector-curvature="0"
     style="fill:#ff0000;fill-rule:evenodd;stroke:#000000;stroke-width:6.39629841" />
  <path
     id="path2423"
     d="m 247.36334,208.67261 c -9.5462,6.61133 -16.57561,15.59962 -13.71867,33.92502 l 70.43569,70.85382 c 17.80865,4.25309 23.93931,-6.28594 31.76645,-14.67609 z"
     inkscape:connector-curvature="0"
     style="fill:#5f5f5f;fill-opacity:1;fill-rule:evenodd;stroke:#000000;stroke-width:6.39629841"
     sodipodi:nodetypes="ccccc" />
  <path
     id="path2394"
     d="m 419.53111,35.665624 92.41611,94.107356"
     inkscape:connector-curvature="0"
     style="fill:none;fill-rule:evenodd;stroke:#000000;stroke-width:6.39629841" />
  <path
     id="path2417"
     d="m 250.10775,211.34385 87.3037,88.90139"
     inkscape:connector-curvature="0"
     style="fill:none;fill-rule:evenodd;stroke:#000000;stroke-width:6.39629841" />
  <path
     id="path2425"
     d="m 336.09596,293.28892 c 0,0 111.56255,-46.62551 163.44824,-147.92432 C 364.02872,280.80463 309.74754,266.45832 309.74754,266.45832 Z"
     inkscape:connector-curvature="0"
     style="fill:#cccccc;fill-rule:evenodd;stroke-width:6.39629841" />
  <path
     id="path2437"
     d="m 509.03914,113.74947 c 0,0 23.07101,-47.042737 18.58812,-89.052647 -24.03887,66.085868 -43.75687,63.423307 -43.75687,63.423307 z"
     inkscape:connector-curvature="0"
     style="fill:#d20000;fill-rule:evenodd;stroke-width:6.39629841" />
  <path
     id="path3237"
     d="m 432.87281,33.576829 c 0,0 65.68235,-22.809478 94.73977,-16.732242 29.05761,6.077342 -95.21717,17.987719 -94.73977,16.732242 z"
     inkscape:connector-curvature="0"
     style="fill:#ff7272;fill-opacity:1;fill-rule:evenodd;stroke-width:6.39629841" />
  <path
     id="path3239"
     d="m 301.44401,138.08654 c -0.47467,-1.99769 54.05655,-70.781352 111.59417,-89.563822 21.98736,1.666461 32.35866,23.126071 27.31109,26.579321 C 396.62361,105.01597 304.2668,149.96747 301.44401,138.08654 Z"
     inkscape:connector-curvature="0"
     style="fill:#ffffff;fill-rule:evenodd;stroke-width:6.39629841" />
  <path
     style="fill:#e73900;fill-rule:evenodd;stroke-width:2.13210028pt"
     inkscape:connector-curvature="0"
     d=""
     id="svg_1756" />
  <path
     style="fill:#e73900;fill-rule:evenodd;stroke-width:2.13209993pt"
     inkscape:connector-curvature="0"
     d=""
     id="svg_1755" />
  <path
     style="fill:#e73900;fill-rule:evenodd;stroke-width:2.13209993pt"
     inkscape:connector-curvature="0"
     d=""
     id="svg_1754" />
  <path
     style="fill:#e78c00;fill-rule:evenodd;stroke-width:2.13209957pt"
     inkscape:connector-curvature="0"
     d=""
     id="svg_1753" />
  <path
     style="fill:#e78c00;fill-rule:evenodd;stroke-width:2.13210028pt"
     inkscape:connector-curvature="0"
     d=""
     id="svg_1752" />
  <path
     style="fill:#e7e100;fill-rule:evenodd;stroke-width:2.13210028pt"
     inkscape:connector-curvature="0"
     d=""
     id="svg_1751" />
  <path
     style="fill:#e78c00;fill-rule:evenodd;stroke-width:2.13209993pt"
     inkscape:connector-curvature="0"
     d=""
     id="svg_1750" />
  <path
     style="fill:#e7e100;fill-rule:evenodd;stroke-width:2.13209921pt"
     inkscape:connector-curvature="0"
     d=""
     id="svg_1749" />
  <path
     style="fill:#e7e100;fill-rule:evenodd;stroke-width:2.13209921pt"
     inkscape:connector-curvature="0"
     d=""
     id="svg_1748" />
  <path
     style="fill:#ffff9e;fill-rule:evenodd;stroke-width:2.13210171pt"
     inkscape:connector-curvature="0"
     d=""
     id="svg_1747" />
  <path
     style="fill:#ffff9e;fill-rule:evenodd;stroke-width:2.13210171pt"
     inkscape:connector-curvature="0"
     d=""
     id="svg_1746" />
  <path
     style="fill:#ffff9e;fill-rule:evenodd;stroke-width:2.13210171pt"
     inkscape:connector-curvature="0"
     d=""
     id="svg_1745" />
  <path
     style="fill:#e73900;fill-rule:evenodd;stroke-width:2.13210028pt"
     inkscape:connector-curvature="0"
     d=""
     id="svg_13" />
  <path
     style="fill:#e73900;fill-rule:evenodd;stroke-width:2.13209993pt"
     inkscape:connector-curvature="0"
     d=""
     id="svg_12" />
  <path
     style="fill:#e73900;fill-rule:evenodd;stroke-width:2.13209993pt"
     inkscape:connector-curvature="0"
     d=""
     id="svg_11" />
  <path
     style="fill:#e78c00;fill-rule:evenodd;stroke-width:2.13209957pt"
     inkscape:connector-curvature="0"
     d=""
     id="svg_10" />
  <path
     style="fill:#e78c00;fill-rule:evenodd;stroke-width:2.13210028pt"
     inkscape:connector-curvature="0"
     d=""
     id="svg_9" />
  <path
     style="fill:#e7e100;fill-rule:evenodd;stroke-width:2.13210028pt"
     inkscape:connector-curvature="0"
     d=""
     id="svg_8" />
  <path
     style="fill:#e78c00;fill-rule:evenodd;stroke-width:2.13209993pt"
     inkscape:connector-curvature="0"
     d=""
     id="svg_7" />
  <path
     style="fill:#e7e100;fill-rule:evenodd;stroke-width:2.13209921pt"
     inkscape:connector-curvature="0"
     d=""
     id="svg_6" />
  <path
     style="fill:#e7e100;fill-rule:evenodd;stroke-width:2.13209921pt"
     inkscape:connector-curvature="0"
     d=""
     id="svg_5" />
  <path
     style="fill:#ffff9e;fill-rule:evenodd;stroke-width:2.13210171pt"
     inkscape:connector-curvature="0"
     d=""
     id="svg_4" />
  <g
     id="svg_1758"
     transform="matrix(2.1320995,0,0,2.1320995,-646.53265,-194.3843)" />
  <g
     id="svg_15"
     transform="matrix(2.1320995,0,0,2.1320995,-646.53265,-194.3843)">
    <path
       style="fill:#ffff9e;fill-rule:evenodd;stroke-width:1.0000011pt"
       inkscape:connector-curvature="0"
       d=""
       id="svg_3" />
    <path
       style="fill:#ffff9e;fill-rule:evenodd;stroke-width:1.0000011pt"
       inkscape:connector-curvature="0"
       d=""
       id="svg_2" />
  </g>
  <circle
     style="opacity:1;fill:#ababab;fill-opacity:1;stroke:none;stroke-width:74.03845978;stroke-linecap:round;stroke-linejoin:round;stroke-miterlimit:4;stroke-dasharray:none;stroke-dashoffset:0;stroke-opacity:1;paint-order:stroke fill markers"
     id="path905"
     cx="415.53119"
     cy="57.093441"
     r="6.449182" />
  <circle
     r="6.449182"
     cy="73.861313"
     cx="429.1666"
     id="circle907"
     style="opacity:1;fill:#ababab;fill-opacity:1;stroke:none;stroke-width:74.03845978;stroke-linecap:round;stroke-linejoin:round;stroke-miterlimit:4;stroke-dasharray:none;stroke-dashoffset:0;stroke-opacity:1;paint-order:stroke fill markers" />
  <circle
     style="opacity:1;fill:#727272;fill-opacity:1;stroke:none;stroke-width:74.03845978;stroke-linecap:round;stroke-linejoin:round;stroke-miterlimit:4;stroke-dasharray:none;stroke-dashoffset:0;stroke-opacity:1;paint-order:stroke fill markers"
     id="circle909"
     cx="444.27612"
     cy="89.707886"
     r="6.449182" />
  <circle
     r="6.449182"
     cy="107.02853"
     cx="462.33383"
     id="circle911"
     style="opacity:1;fill:#727272;fill-opacity:1;stroke:none;stroke-width:74.03845978;stroke-linecap:round;stroke-linejoin:round;stroke-miterlimit:4;stroke-dasharray:none;stroke-dashoffset:0;stroke-opacity:1;paint-order:stroke fill markers" />
  <circle
     style="opacity:1;fill:#727272;fill-opacity:1;stroke:none;stroke-width:74.03845978;stroke-linecap:round;stroke-linejoin:round;stroke-miterlimit:4;stroke-dasharray:none;stroke-dashoffset:0;stroke-opacity:1;paint-order:stroke fill markers"
     id="circle913"
     cx="477.99615"
     cy="122.8751"
     r="6.449182" />
  <circle
     r="6.449182"
     cy="137.24757"
     cx="494.57974"
     id="circle915"
     style="opacity:1;fill:#727272;fill-opacity:1;stroke:none;stroke-width:74.03845978;stroke-linecap:round;stroke-linejoin:round;stroke-miterlimit:4;stroke-dasharray:none;stroke-dashoffset:0;stroke-opacity:1;paint-order:stroke fill markers" />
  <path
     id="path3241"
     d="m 246.52077,211.71378 -12.96285,12.26113 -0.79903,16.82824 10.03868,11.94659 21.45035,-27.29475 z"
     inkscape:connector-curvature="0"
     style="fill:#494949;fill-opacity:1;fill-rule:evenodd;stroke-width:6.39629841"
     sodipodi:nodetypes="cccccc" />
  <path
     sodipodi:nodetypes="ccccc"
     style="fill:none;fill-opacity:1;fill-rule:evenodd;stroke:#000000;stroke-width:6.39629841"
     inkscape:connector-curvature="0"
     d="m 247.36334,208.67261 c -9.5462,6.61133 -16.57561,15.59962 -13.71867,33.92502 l 70.43569,70.85382 c 17.80865,4.25309 23.93931,-6.28594 31.76645,-14.67609 z"
     id="path948" />
  <g
     id="g932"
     transform="matrix(1.1086187,0,0,1.1083785,12.564149,-29.322284)"
     style="stroke-width:0.90212113">
    <path
       id="path923"
       d="m 216.94045,200.38081 -13.71867,33.92502 70.43569,70.85382 31.76645,-14.67609 z"
       inkscape:connector-curvature="0"
       style="fill:#5f5f5f;fill-opacity:1;fill-rule:evenodd;stroke:#000000;stroke-width:5.76996613;stroke-miterlimit:4;stroke-dasharray:none;paint-order:normal" />
    <path
       style="fill:#5f5f5f;fill-opacity:1;fill-rule:evenodd;stroke:#000000;stroke-width:5.76996613;stroke-miterlimit:4;stroke-dasharray:none;paint-order:normal"
       inkscape:connector-curvature="0"
       d="m 216.94045,200.38081 c -7.4371,9.01648 -15.40396,17.60905 -13.71867,33.92502 l 70.43569,70.85382 c 15.80372,2.93202 23.163,-6.80536 31.76645,-14.67609 z"
       id="path927"
       sodipodi:nodetypes="ccccc" />
    <path
       id="path925"
       d="m 207.62122,213.72917 -5.11901,16.28851 9.87247,12.94406 21.45035,-25.79855 z"
       inkscape:connector-curvature="0"
       style="fill:#494949;fill-opacity:1;fill-rule:evenodd;stroke-width:5.77023602"
       sodipodi:nodetypes="ccccc" />
    <path
       sodipodi:nodetypes="ccccc"
       id="path950"
       d="m 216.94045,200.38081 c -7.4371,9.01648 -15.40396,17.60905 -13.71867,33.92502 l 70.43569,70.85382 c 15.80372,2.93202 23.163,-6.80536 31.76645,-14.67609 z"
       inkscape:connector-curvature="0"
       style="fill:none;fill-opacity:1;fill-rule:evenodd;stroke:#000000;stroke-width:5.76996613;stroke-miterlimit:4;stroke-dasharray:none;paint-order:normal" />
  </g>
  <g
     style="stroke-width:0.84722924"
     transform="matrix(1.1805167,0,0,1.1801195,3.2523324,-59.556776)"
     id="g940">
    <path
       id="path938"
       d="m 220.91376,203.58261 c -8.60632,7.12468 -21.46042,3.92915 -18.94067,23.85312 l 81.82998,79.75372 c 16.47438,4.17797 16.02078,-4.12591 21.62085,-16.70589 z"
       inkscape:connector-curvature="0"
       style="fill:#5f5f5f;fill-opacity:1;fill-rule:evenodd;stroke:none;stroke-width:5.4188776;stroke-miterlimit:4;stroke-dasharray:none;paint-order:normal"
       sodipodi:nodetypes="ccccc" />
    <path
       style="fill:#494949;fill-opacity:1;fill-rule:evenodd;stroke-width:5.41913128"
       inkscape:connector-curvature="0"
       d="m 219.62971,205.4093 -13.68063,5.10448 -3.45699,14.65905 10.03868,11.94659 21.29426,-19.95623 z"
       id="path936"
       sodipodi:nodetypes="cccccc" />
    <path
       sodipodi:nodetypes="ccccc"
       style="fill:none;fill-opacity:1;fill-rule:evenodd;stroke:#000000;stroke-width:5.4188776;stroke-miterlimit:4;stroke-dasharray:none;paint-order:normal"
       inkscape:connector-curvature="0"
       d="m 220.91376,203.58261 c -9.01428,2.63557 -21.46113,3.92134 -18.94067,23.85312 l 81.82998,79.75372 c 16.50721,4.17578 20.1187,-4.3992 21.62085,-16.70589 z"
       id="path952" />
  </g>
  <path
     style="fill:#cccccc;fill-rule:nonzero;stroke-width:6.3963;stroke-linecap:round;stroke-miterlimit:4"
     inkscape:connector-curvature="0"
     stroke-miterlimit="4"
     d="m 434.37104,117.06659 c -14.51855,-14.78425 -39.41214,-13.95868 -55.48404,1.82438 -16.07192,15.78309 -17.33531,40.64442 -2.81676,55.42867 14.51862,14.78431 39.41086,13.98425 55.48279,-1.79884 16.07189,-15.78306 17.33663,-40.66989 2.81801,-55.45421 z m -3.44767,3.38571 c 12.83344,13.06829 11.72168,34.94583 -2.48482,48.89702 -14.2065,13.9512 -36.08717,14.65287 -48.92061,1.58458 -12.83346,-13.06832 -11.72301,-34.92031 2.4835,-48.8715 14.20654,-13.95115 36.08847,-14.67842 48.92193,-1.6101 z"
     id="path3219" />
  <path
     style="fill:#b3b3b3;fill-rule:nonzero;stroke:#000000;stroke-width:6.3963;stroke-linecap:round;stroke-miterlimit:4"
     inkscape:connector-curvature="0"
     stroke-miterlimit="4"
     id="path2400"
     d="m 430.24771,166.01409 a 35.359755,38.439463 45.519498 1 1 -49.55079,-50.45759 35.359755,38.439463 45.519498 1 1 49.55079,50.45759 z" />
  <path
     style="fill:#80e5ff;fill-rule:nonzero;stroke:#000000;stroke-width:6.3963;stroke-linecap:round;stroke-miterlimit:4"
     inkscape:connector-curvature="0"
     stroke-miterlimit="4"
     d="M 421.596,157.20405 A 23.011944,25.016207 45.519498 1 1 389.34861,124.36652 23.011944,25.016207 45.519498 1 1 421.596,157.20405 Z"
     id="path2402" />
  <rect
     style="fill:#ffffff;fill-rule:nonzero;stroke-width:1.74164;stroke-linecap:round;stroke-miterlimit:4"
     stroke-miterlimit="4"
     id="rect2429"
     width="20.011551"
     height="48.599483"
     x="146.22163"
     y="-439.03674"
     transform="matrix(-0.05526087,0.99847195,-0.99930983,0.03714659,0,0)" />
  <path
     style="fill:none;fill-rule:nonzero;stroke:#000000;stroke-width:6.3963;stroke-linecap:round;stroke-miterlimit:4"
     inkscape:connector-curvature="0"
     stroke-miterlimit="4"
     id="path2431"
     d="M 421.596,157.20405 A 23.011944,25.016207 45.519498 1 1 389.34861,124.36652 23.011944,25.016207 45.519498 1 1 421.596,157.20405 Z" />
</svg>
