<svg xmlns="http://www.w3.org/2000/svg" viewBox="0 0 49 49"><path d="M16.769 42.094l6.492 6.492h10.536a2.317 2.317 0 002.316-2.316V21.934L16.769 41.29a.558.558 0 000 .804z" fill="#235DC1"/><path d="M.246 15.039v10.536l6.492 6.492a.558.558 0 00.804 0L26.898 12.71H2.562a2.328 2.328 0 00-2.316 2.328z" fill="#3B6EC6"/><path d="M24.606 3.241L8.982 27.145a2.05 2.05 0 00.264 2.568L19.254 39.72a2.052 2.052 0 002.568.264l23.903-15.636a5.394 5.394 0 002.436-4.512V3.169A2.381 2.381 0 0045.785.793H29.13a5.426 5.426 0 00-4.524 2.448z" fill="#5D8DE4"/><path d="M3.762 45.3v-8.448H.246v11.784H12.21v-3.337H3.762z" fill="#9FBBF0"/><path d="M36.17 18.502a5.952 5.952 0 100-11.904 5.952 5.952 0 000 11.904z" fill="#ADC5F2"/><path d="M25.517 20.526L12.789 33.254l2.936 2.936 12.728-12.728-2.936-2.936z" fill="#6C9AEE"/><path d="M13.19 38.724l2.529-2.529-2.936-2.936-2.529 2.529 2.936 2.936z" fill="#88ACEF"/></svg>