<?xml version="1.0" encoding="UTF-8" standalone="no"?>
<svg
   width="1024"
   height="1024"
   viewBox="0 0 1024 1024"
   fill="none"
   version="1.1"
   id="svg1236"
   sodipodi:docname="github.svg"
   inkscape:version="1.1.1 (c3084ef, 2021-09-22)"
   xmlns:inkscape="http://www.inkscape.org/namespaces/inkscape"
   xmlns:sodipodi="http://sodipodi.sourceforge.net/DTD/sodipodi-0.dtd"
   xmlns="http://www.w3.org/2000/svg"
   xmlns:svg="http://www.w3.org/2000/svg">
  <defs
     id="defs1240" />
  <sodipodi:namedview
     id="namedview1238"
     pagecolor="#ffffff"
     bordercolor="#666666"
     borderopacity="1.0"
     inkscape:pageshadow="2"
     inkscape:pageopacity="0.0"
     inkscape:pagecheckerboard="0"
     showgrid="false"
     inkscape:zoom="0.703125"
     inkscape:cx="511.28889"
     inkscape:cy="511.28889"
     inkscape:window-width="1296"
     inkscape:window-height="969"
     inkscape:window-x="0"
     inkscape:window-y="25"
     inkscape:window-maximized="0"
     inkscape:current-layer="svg1236" />
  <path
     fill-rule="evenodd"
     clip-rule="evenodd"
     d="M 512,12 C 229.12,12 0,241.12 0,524 c 0,226.56 146.56,417.92 350.08,485.76 25.6,4.48 35.2,-10.88 35.2,-24.32 0,-12.16 -0.64,-52.48 -0.64,-95.36 C 256,913.76 222.72,858.72 212.48,829.92 206.72,815.2 181.76,769.76 160,757.6 c -17.92,-9.6 -43.52,-33.28 -0.64,-33.92 40.32,-0.64 69.12,37.12 78.72,52.48 46.08,77.44 119.68,55.68 149.12,42.24 4.48,-33.28 17.92,-55.68 32.64,-68.48 -113.92,-12.8 -232.96,-56.96 -232.96,-252.8 0,-55.68 19.84,-101.76 52.48,-137.6 -5.12,-12.8 -23.04,-65.28 5.12,-135.68 0,0 42.88,-13.44 140.8,52.48 40.96,-11.52 84.48,-17.28 128,-17.28 43.52,0 87.04,5.76 128,17.28 97.92,-66.56 140.8,-52.48 140.8,-52.48 28.16,70.4 10.24,122.88 5.12,135.68 32.64,35.84 52.48,81.28 52.48,137.6 0,196.48 -119.68,240 -233.6,252.8 18.56,16 34.56,46.72 34.56,94.72 0,68.48 -0.64,123.52 -0.64,140.8 0,13.44 9.6,29.44 35.2,24.32 C 877.44,941.92 1024,749.92 1024,524 1024,241.12 794.88,12 512,12 Z"
     fill="#ffffff"
     id="path1234"
     style="stroke-width:64" />
</svg>
