<?xml version="1.0" encoding="UTF-8" standalone="no"?>
<svg
   height="96"
   viewBox="0 0 96 96"
   width="96"
   version="1.1"
   id="svg1004"
   sodipodi:docname="resharper.svg"
   inkscape:version="1.1.1 (c3084ef, 2021-09-22)"
   xmlns:inkscape="http://www.inkscape.org/namespaces/inkscape"
   xmlns:sodipodi="http://sodipodi.sourceforge.net/DTD/sodipodi-0.dtd"
   xmlns="http://www.w3.org/2000/svg"
   xmlns:svg="http://www.w3.org/2000/svg">
  <defs
     id="defs1008" />
  <sodipodi:namedview
     id="namedview1006"
     pagecolor="#ffffff"
     bordercolor="#666666"
     borderopacity="1.0"
     inkscape:pageshadow="2"
     inkscape:pageopacity="0.0"
     inkscape:pagecheckerboard="0"
     showgrid="false"
     fit-margin-top="0"
     fit-margin-left="0"
     fit-margin-right="0"
     fit-margin-bottom="0"
     inkscape:zoom="6.6095238"
     inkscape:cx="47.885447"
     inkscape:cy="48.036744"
     inkscape:window-width="1920"
     inkscape:window-height="1027"
     inkscape:window-x="0"
     inkscape:window-y="25"
     inkscape:window-maximized="1"
     inkscape:current-layer="svg1004" />
  <linearGradient
     id="a"
     gradientUnits="userSpaceOnUse"
     x1="51.740002"
     x2="93.139999"
     y1="100.56"
     y2="40.23"
     gradientTransform="translate(-4.5,-4.36)">
    <stop
       offset=".02"
       stop-color="#ff45ed"
       id="stop967" />
    <stop
       offset=".4"
       stop-color="#dd1265"
       id="stop969" />
    <stop
       offset="1"
       stop-color="#fdb60d"
       id="stop971" />
  </linearGradient>
  <linearGradient
     id="b"
     gradientUnits="userSpaceOnUse"
     x1="7.0100002"
     x2="71.459999"
     y1="77.629997"
     y2="17.01"
     gradientTransform="translate(-4.5,-4.36)">
    <stop
       offset=".02"
       stop-color="#ff45ed"
       id="stop974" />
    <stop
       offset=".66"
       stop-color="#dd1265"
       id="stop976" />
  </linearGradient>
  <linearGradient
     id="c"
     gradientUnits="userSpaceOnUse"
     x1="69.779999"
     x2="70.440002"
     y1="2.0899999"
     y2="40.18"
     gradientTransform="translate(-4.5,-4.36)">
    <stop
       offset="0"
       stop-color="#dd1265"
       id="stop979" />
    <stop
       offset=".06"
       stop-color="#df1961"
       id="stop981" />
    <stop
       offset=".7"
       stop-color="#f46330"
       id="stop983" />
    <stop
       offset="1"
       stop-color="#fc801d"
       id="stop985" />
  </linearGradient>
  <path
     d="M 70.21,21.56 36.18,64.56 28.5,96 H 80.16 L 96,31.63 Z"
     fill="url(#a)"
     id="path988"
     style="fill:url(#a)" />
  <path
     d="M 67.18,0 H 15.93 L 0,64.56 h 76.26 z"
     fill="url(#b)"
     id="path990"
     style="fill:url(#b)" />
  <path
     d="M 69.85,18.26 67.18,0 61.42,18.26 Z"
     fill="url(#c)"
     id="path992"
     style="fill:url(#c)" />
  <path
     d="m 18,18.14 h 60 v 60 H 18 Z"
     id="path994" />
  <g
     fill="#ffffff"
     id="g1002"
     transform="translate(-4.5,-4.36)">
    <path
       d="m 29.98,71.16 h 22.5 v 3.75 h -22.5 z"
       id="path996" />
    <path
       d="m 54.54,47.68 h -2.45 v -4.12 h 3.16 l 0.8,-4.78 h -2.83 v -4.13 h 3.54 l 0.81,-4.71 h 4.26 L 61,34.65 h 4.7 l 0.81,-4.7 h 4.25 l -0.8,4.7 h 2.45 v 4.13 h -3.16 l -0.81,4.78 h 2.84 v 4.12 h -3.55 l -0.84,4.84 h -4.25 l 0.83,-4.84 H 58.8 L 58,52.52 H 53.7 Z M 64.18,43.56 65,38.78 h -4.69 l -0.8,4.78 z"
       id="path998" />
    <path
       d="m 30,29.94 h 10.34 a 8.94,8.94 0 0 1 6.58,2.29 7,7 0 0 1 1.93,5.16 v 0.06 A 7,7 0 0 1 47.51,41.92 7.74,7.74 0 0 1 44,44.45 l 5.51,8.06 h -5.8 L 39.04,45.58 H 35 v 6.93 h -5 z m 10,11 a 4.14,4.14 0 0 0 2.84,-0.94 3,3 0 0 0 1,-2.32 v -0.06 a 2.87,2.87 0 0 0 -1,-2.42 4.54,4.54 0 0 0 -2.87,-0.81 H 35 v 6.51 z"
       id="path1000" />
  </g>
</svg>
