<?xml version="1.0" encoding="UTF-8" standalone="no"?>
<svg
   height="96"
   viewBox="0 0 96 96"
   width="96"
   version="1.1"
   id="svg859"
   sodipodi:docname="rider.svg"
   inkscape:version="1.1.1 (c3084ef, 2021-09-22)"
   xmlns:inkscape="http://www.inkscape.org/namespaces/inkscape"
   xmlns:sodipodi="http://sodipodi.sourceforge.net/DTD/sodipodi-0.dtd"
   xmlns="http://www.w3.org/2000/svg"
   xmlns:svg="http://www.w3.org/2000/svg">
  <defs
     id="defs863" />
  <sodipodi:namedview
     id="namedview861"
     pagecolor="#ffffff"
     bordercolor="#666666"
     borderopacity="1.0"
     inkscape:pageshadow="2"
     inkscape:pageopacity="0.0"
     inkscape:pagecheckerboard="0"
     showgrid="false"
     fit-margin-top="0"
     fit-margin-left="0"
     fit-margin-right="0"
     fit-margin-bottom="0"
     inkscape:zoom="6.6095238"
     inkscape:cx="47.885447"
     inkscape:cy="48.036744"
     inkscape:window-width="1920"
     inkscape:window-height="1027"
     inkscape:window-x="0"
     inkscape:window-y="25"
     inkscape:window-maximized="1"
     inkscape:current-layer="svg859" />
  <linearGradient
     id="a"
     gradientUnits="userSpaceOnUse"
     x1="94.330002"
     x2="20.33"
     y1="59.369999"
     y2="16.91"
     gradientTransform="translate(-4.5,-4.38)">
    <stop
       offset="0"
       stop-color="#dd1265"
       id="stop824" />
    <stop
       offset=".48"
       stop-color="#dd1265"
       id="stop826" />
    <stop
       offset=".94"
       stop-color="#fdb60d"
       id="stop828" />
  </linearGradient>
  <linearGradient
     id="b"
     gradientUnits="userSpaceOnUse"
     x1="50.330002"
     x2="79.660004"
     y1="12.76"
     y2="93.760002"
     gradientTransform="translate(-4.5,-4.38)">
    <stop
       offset=".14"
       stop-color="#087cfa"
       id="stop831" />
    <stop
       offset=".48"
       stop-color="#dd1265"
       id="stop833" />
    <stop
       offset=".96"
       stop-color="#087cfa"
       id="stop835" />
  </linearGradient>
  <linearGradient
     id="c"
     gradientUnits="userSpaceOnUse"
     x1="28.360001"
     x2="50.02"
     y1="15.26"
     y2="92.260002"
     gradientTransform="translate(-4.5,-4.38)">
    <stop
       offset=".28"
       stop-color="#dd1265"
       id="stop838" />
    <stop
       offset=".97"
       stop-color="#fdb60d"
       id="stop840" />
  </linearGradient>
  <path
     d="M 96,37.35 28.7,0 73.76,66.95 83.02,60.88 Z"
     fill="url(#a)"
     id="path843"
     style="fill:url(#a)" />
  <path
     d="M 69.15,22.12 60.72,1.51 42.07,19.87 49.7,86.49 67.77,96 96,79.51 Z"
     fill="url(#b)"
     id="path845"
     style="fill:url(#b)" />
  <path
     d="M 28.7,0 0,19.33 10.67,85.26 38.19,95.84 73.76,66.95 Z"
     fill="url(#c)"
     id="path847"
     style="fill:url(#c)" />
  <path
     d="m 18,18.12 h 60 v 60 H 18 Z"
     id="path849" />
  <g
     fill="#ffffff"
     id="g857"
     transform="translate(-4.5,-4.38)">
    <path
       d="m 29.98,71.16 h 22.5 v 3.75 h -22.5 z"
       id="path851" />
    <path
       d="m 30,29.92 h 10.3 a 9,9 0 0 1 6.57,2.29 7.08,7.08 0 0 1 1.94,5.16 v 0.06 a 7,7 0 0 1 -4.84,7 l 5.52,8.06 H 43.68 L 38.85,45.27 H 35 v 7.22 h -5 z m 10,11 c 2.42,0 3.81,-1.29 3.81,-3.19 v -0.06 c 0,-2.13 -1.48,-3.23 -3.9,-3.23 H 35 v 6.48 z"
       id="path853" />
    <path
       d="m 52.93,29.92 h 8.8 c 7.09,0 12,4.87 12,11.22 v 0.07 c 0,6.35 -4.9,11.28 -12,11.28 h -8.8 z m 5,4.48 V 48 h 3.84 a 6.43,6.43 0 0 0 6.8,-6.74 V 41.2 a 6.49,6.49 0 0 0 -6.8,-6.81 z"
       id="path855" />
  </g>
</svg>
