<?xml version="1.0" encoding="UTF-8" standalone="no"?>
<svg
   height="105"
   viewBox="0 0 105 105"
   width="105"
   version="1.1"
   id="svg1150"
   sodipodi:docname="space.svg"
   inkscape:version="1.1.1 (c3084ef, 2021-09-22)"
   xmlns:inkscape="http://www.inkscape.org/namespaces/inkscape"
   xmlns:sodipodi="http://sodipodi.sourceforge.net/DTD/sodipodi-0.dtd"
   xmlns="http://www.w3.org/2000/svg"
   xmlns:svg="http://www.w3.org/2000/svg">
  <defs
     id="defs1154" />
  <sodipodi:namedview
     id="namedview1152"
     pagecolor="#ffffff"
     bordercolor="#666666"
     borderopacity="1.0"
     inkscape:pageshadow="2"
     inkscape:pageopacity="0.0"
     inkscape:pagecheckerboard="0"
     showgrid="false"
     inkscape:zoom="6.8571429"
     inkscape:cx="49.802083"
     inkscape:cy="52.427083"
     inkscape:window-width="1920"
     inkscape:window-height="1027"
     inkscape:window-x="0"
     inkscape:window-y="25"
     inkscape:window-maximized="1"
     inkscape:current-layer="svg1150" />
  <linearGradient
     id="a"
     gradientUnits="userSpaceOnUse"
     x1="48.81"
     x2="56.64"
     y1="13.97"
     y2="88.19">
    <stop
       offset="0"
       stop-color="#fcf84a"
       id="stop1117" />
    <stop
       offset=".32"
       stop-color="#abe682"
       id="stop1119" />
    <stop
       offset=".79"
       stop-color="#36cdd2"
       id="stop1121" />
    <stop
       offset="1"
       stop-color="#07c3f2"
       id="stop1123" />
  </linearGradient>
  <linearGradient
     id="b"
     gradientUnits="userSpaceOnUse"
     x1="20.1"
     x2="90.32"
     y1="15.11"
     y2="48.42">
    <stop
       offset="0"
       stop-color="#3bea62"
       id="stop1126" />
    <stop
       offset="1"
       stop-color="#087cfa"
       id="stop1128" />
  </linearGradient>
  <linearGradient
     id="c"
     gradientUnits="userSpaceOnUse"
     x1="26.51"
     x2="97.21"
     y1="87.63"
     y2="38.14">
    <stop
       offset="0"
       stop-color="#009ae5"
       id="stop1131" />
    <stop
       offset=".18"
       stop-color="#0490dd"
       id="stop1133" />
    <stop
       offset=".49"
       stop-color="#1073c6"
       id="stop1135" />
    <stop
       offset=".89"
       stop-color="#2346a1"
       id="stop1137" />
    <stop
       offset="1"
       stop-color="#293896"
       id="stop1139" />
  </linearGradient>
  <g
     fill-rule="evenodd"
     id="g1148"
     transform="matrix(1.3947222,0,0,1.3947222,-20.505624,-20.566667)">
    <path
       d="M 28.58,90 A 74.94,74.94 0 0 0 90,47 75,75 0 0 0 28.58,15 c -2.18,0 -4.37,0.09 -6.56,0.29 A 75,75 0 0 0 28.58,90 Z"
       fill="url(#a)"
       id="path1142"
       style="fill:url(#a)" />
    <path
       d="M 22.09,15.29 A 88.32,88.32 0 0 1 61.55,47 H 90 A 74.76,74.76 0 0 0 28.66,15 q -3.27,0 -6.57,0.29 z"
       fill="url(#b)"
       id="path1144"
       style="fill:url(#b)" />
    <path
       d="M 61.56,47 C 58.13,69.63 28.58,90 28.58,90 55.44,87.45 79,71.35 90,47 Z"
       fill="url(#c)"
       id="path1146"
       style="fill:url(#c)" />
  </g>
</svg>
