<?xml version="1.0" encoding="UTF-8" standalone="no"?>
<svg
   height="96.009827"
   viewBox="0 0 96.001251 96.009827"
   width="96.001251"
   version="1.1"
   id="svg862"
   sodipodi:docname="teamcity.svg"
   inkscape:version="1.1.1 (c3084ef, 2021-09-22)"
   xmlns:inkscape="http://www.inkscape.org/namespaces/inkscape"
   xmlns:sodipodi="http://sodipodi.sourceforge.net/DTD/sodipodi-0.dtd"
   xmlns="http://www.w3.org/2000/svg"
   xmlns:svg="http://www.w3.org/2000/svg">
  <defs
     id="defs866" />
  <sodipodi:namedview
     id="namedview864"
     pagecolor="#ffffff"
     bordercolor="#666666"
     borderopacity="1.0"
     inkscape:pageshadow="2"
     inkscape:pageopacity="0.0"
     inkscape:pagecheckerboard="0"
     showgrid="false"
     fit-margin-top="0"
     fit-margin-left="0"
     fit-margin-right="0"
     fit-margin-bottom="0"
     inkscape:zoom="6.8571429"
     inkscape:cx="47.90625"
     inkscape:cy="47.90625"
     inkscape:window-width="1920"
     inkscape:window-height="1027"
     inkscape:window-x="0"
     inkscape:window-y="25"
     inkscape:window-maximized="1"
     inkscape:current-layer="svg862" />
  <linearGradient
     id="a"
     gradientUnits="userSpaceOnUse"
     x1="41.73"
     x2="33.52"
     y1="62.970001"
     y2="38.669998"
     gradientTransform="translate(-4.4838626,-4.4962604)">
    <stop
       offset="0"
       stop-color="#07c3f2"
       id="stop824" />
    <stop
       offset="1"
       stop-color="#6b57ff"
       id="stop826" />
  </linearGradient>
  <linearGradient
     id="b"
     gradientUnits="userSpaceOnUse"
     x1="38.93"
     x2="68.349998"
     y1="71.209999"
     y2="56.439999"
     gradientTransform="translate(-4.4838626,-4.4962604)">
    <stop
       offset="0"
       stop-color="#07c3f2"
       id="stop829" />
    <stop
       offset="1"
       stop-color="#009ae5"
       id="stop831" />
  </linearGradient>
  <linearGradient
     id="c"
     gradientUnits="userSpaceOnUse"
     x1="76.230003"
     x2="27.549999"
     y1="56.759998"
     y2="20.01"
     gradientTransform="translate(-4.4838626,-4.4962604)">
    <stop
       offset="0"
       stop-color="#009ae5"
       id="stop834" />
    <stop
       offset="1"
       stop-color="#6b57ff"
       id="stop836" />
  </linearGradient>
  <linearGradient
     id="d"
     gradientUnits="userSpaceOnUse"
     x1="25.790001"
     x2="58.950001"
     y1="82.029999"
     y2="14.5"
     gradientTransform="translate(-4.4838626,-4.4962604)">
    <stop
       offset=".3"
       stop-color="#07c3f2"
       id="stop839" />
    <stop
       offset=".6"
       stop-color="#3bea62"
       id="stop841" />
  </linearGradient>
  <path
     d="M 24.456137,83.02374 4.3361374,30.11374 A 22.14,22.14 0 0 1 24.416137,0.10373958 a 22.13,22.13 0 0 1 21.6,15.24000042 l 17.61,53.79 c 3.55,10.85 -35.19,24.37 -39.17,13.89 z"
     fill="url(#a)"
     id="path844"
     style="fill:url(#a)" />
  <path
     d="m 84.826137,66.23374 -49.31,26.67 a 23.85,23.85 0 0 1 -33.0999996,-11.2 23.9,23.9 0 0 1 12.8399996,-32 l 52,-21 a 20.69,20.69 0 0 1 24.55,7.12 20.76,20.76 0 0 1 -6.98,30.41 z"
     fill="url(#b)"
     id="path846"
     style="fill:url(#b)" />
  <path
     d="m 66.196137,66.69374 -50.92,-24.61 A 22.16,22.16 0 0 1 9.2761374,6.4637396 a 22.08,22.08 0 0 1 26.1599996,-3.78 l 49.7,27.0000004 a 20.82,20.82 0 0 1 8.46,28 20.76,20.76 0 0 1 -27.4,9.01 z"
     fill="url(#c)"
     id="path848"
     style="fill:url(#c)" />
  <path
     d="m 14.096137,93.83374 a 24.1,24.1 0 0 1 -8.5799996,-37.27 L 48.596137,4.5037396 a 12,12 0 0 1 14.19,-3.3 12.05,12.05 0 0 1 6.41,15.0000004 l -22.46,63.73 a 24,24 0 0 1 -32.64,13.9 z"
     fill="url(#d)"
     id="path850"
     style="fill:url(#d)" />
  <path
     d="m 18.016137,18.00374 h 60 v 60 h -60 z"
     id="path852" />
  <g
     fill="#ffffff"
     id="g860"
     transform="translate(-4.4838626,-4.4962604)">
    <path
       d="m 29.98,71.16 h 22.5 v 3.75 h -22.5 z"
       id="path854" />
    <path
       d="m 36.03,34.49 h -6.87 v -4.58 h 18.7 v 4.58 h -6.87 v 17.99 h -4.96 z"
       id="path856" />
    <path
       d="M 49.73,41.26 V 41.2 A 11.46,11.46 0 0 1 61.5,29.53 11.64,11.64 0 0 1 70.4,33 l -3.16,3.64 a 8.34,8.34 0 0 0 -5.78,-2.55 c -3.8,0 -6.54,3.16 -6.54,7 v 0.07 c 0,3.87 2.68,7.09 6.54,7.09 2.58,0 4.16,-1 5.94,-2.64 l 3.16,3.19 a 11.55,11.55 0 0 1 -9.26,4 11.39,11.39 0 0 1 -11.57,-11.54"
       id="path858" />
  </g>
</svg>
