<?xml version="1.0" standalone="no"?>
<!DOCTYPE svg PUBLIC "-//W3C//DTD SVG 20010904//EN"
 "http://www.w3.org/TR/2001/REC-SVG-20010904/DTD/svg10.dtd">
<svg version="1.0" xmlns="http://www.w3.org/2000/svg"
 width="1896.000000pt" height="1896.000000pt" viewBox="0 0 1896.000000 1896.000000"
 preserveAspectRatio="xMidYMid meet">
<metadata>
Created by potrace 1.11, written by Peter Selinger 2001-2013
</metadata>
<g transform="translate(0.000000,1896.000000) scale(0.100000,-0.100000)"
fill="#000000" stroke="none">
<path d="M2480 16678 c-239 -82 -440 -155 -447 -161 -12 -13 -483 -1138 -490
-1174 -5 -23 39 -111 311 -623 241 -453 238 -439 282 -1205 8 -154 19 -313 22
-354 l7 -75 92 -49 c73 -40 93 -55 97 -76 3 -14 94 -577 201 -1251 108 -673
198 -1227 201 -1229 2 -3 27 -4 54 -2 34 2 52 -2 55 -11 4 -12 185 -1154 185
-1169 0 -4 -31 -9 -70 -11 -118 -6 -160 -56 -160 -192 0 -155 -13 -113 626
-2080 118 -363 214 -664 214 -669 0 -5 -44 -71 -97 -146 -87 -121 -106 -142
-181 -196 -591 -418 -874 -1118 -732 -1809 95 -465 375 -877 800 -1182 585
-420 1488 -687 2630 -778 457 -37 1111 -44 1480 -17 l105 8 156 -48 157 -49
1317 2 1317 3 36 87 c19 49 34 90 31 92 -2 2 -391 193 -864 425 -472 231 -865
427 -871 433 -7 7 -122 252 -256 543 -669 1452 -1203 2592 -1221 2608 -11 10
-120 68 -242 129 -207 104 -225 115 -253 157 -70 107 -70 209 3 431 60 183 70
292 35 364 -27 57 -95 118 -174 156 l-61 29 -997 2333 -997 2333 -45 500 c-25
274 -44 500 -43 501 1 1 506 -71 1122 -159 l1120 -161 4455 -6 c4186 -5 4461
-7 4555 -23 289 -51 498 -124 665 -231 38 -25 70 -43 70 -41 0 18 -448 728
-651 1031 -287 429 -481 668 -574 709 -263 117 -1842 454 -4495 960 -781 149
-2836 535 -2847 535 -6 0 -25 -41 -43 -91 -31 -86 -33 -90 -59 -85 -14 3 -294
55 -621 115 -692 128 -3256 602 -3953 731 -264 49 -481 91 -484 93 -2 3 -7 48
-10 101 -4 60 -10 96 -17 95 -6 0 -207 -68 -446 -151z m1330 -612 c2519 -466
4073 -756 4077 -759 2 -3 -12 -47 -31 -99 l-34 -95 1061 -223 c584 -122 1064
-224 1066 -226 2 -2 -1247 -4 -2777 -4 l-2781 0 -503 523 c-277 287 -594 616
-705 731 l-203 208 0 50 c0 47 1 50 23 45 12 -3 375 -71 807 -151z m142 -5190
c555 -961 1007 -1750 1004 -1753 -2 -3 -222 -5 -488 -6 -421 -2 -500 0 -613
16 -156 23 -412 71 -422 80 -6 7 -202 1223 -203 1260 0 13 9 17 38 18 20 1 46
4 57 7 20 7 14 41 -185 1052 -114 575 -209 1061 -213 1080 -6 30 -5 32 5 15 6
-11 466 -807 1020 -1769z m693 -2292 c363 -36 663 -68 667 -72 22 -23 607
-1057 601 -1063 -10 -9 -1502 -423 -1507 -418 -4 6 -516 1614 -516 1623 0 5
21 5 48 2 26 -4 344 -36 707 -72z"/>
<path d="M7795 12130 c-10 -17 -777 -2884 -777 -2905 1 -11 557 -1203 1236
-2650 l1235 -2630 85 -3 85 -3 10 38 c114 434 1779 6633 1797 6693 36 116 73
187 136 255 69 76 137 118 245 154 144 48 208 53 668 49 363 -4 427 -6 472
-21 148 -49 175 -164 104 -442 -33 -129 -1786 -6674 -1796 -6706 -6 -19 22
-19 2026 -17 l2033 3 923 3445 c508 1895 935 3500 948 3568 47 225 50 457 10
614 -51 194 -185 355 -369 443 -145 69 -277 99 -495 115 -182 13 -3531 13
-3713 0 -380 -27 -620 -124 -836 -335 -45 -45 -81 -76 -79 -71 9 22 107 396
107 406 0 14 -4046 14 -4055 0z"/>
</g>
</svg>
