<?xml version="1.0" encoding="UTF-8" standalone="no"?>
<svg
   xmlns:dc="http://purl.org/dc/elements/1.1/"
   xmlns:cc="http://creativecommons.org/ns#"
   xmlns:rdf="http://www.w3.org/1999/02/22-rdf-syntax-ns#"
   xmlns:svg="http://www.w3.org/2000/svg"
   xmlns="http://www.w3.org/2000/svg"
   xml:space="preserve"
   width="101pt"
   height="39pt"
   version="1.1"
   style="clip-rule:evenodd;fill-rule:evenodd;image-rendering:optimizeQuality;shape-rendering:geometricPrecision;text-rendering:geometricPrecision"
   viewBox="0 0 3563.0534 1375.831"
   id="svg4701"><metadata
     id="metadata4722"><rdf:RDF><cc:Work
         rdf:about=""><dc:format>image/svg+xml</dc:format><dc:type
           rdf:resource="http://purl.org/dc/dcmitype/StillImage" /><dc:title></dc:title></cc:Work></rdf:RDF></metadata><defs
     id="defs4703"><style
       type="text/css"
       id="style4705"><![CDATA[
    .fil1 {fill:#b3b3b3;fill-rule:nonzero}
    .fil0 {fill:white}
    .fil2 {fill:#727376;fill-rule:nonzero}
    .fil3 {fill:#F8B435;fill-rule:nonzero}
   ]]></style></defs><path
     id="path4714"
     d="m 887.23609,494.16 c -34.4311,0 -53.52964,9.415 -67.78627,27.169 l 7.26277,-27.169 -250.43254,0 -48.41873,179.957 153.32607,326.289 9.95273,0 110.82518,-414.249 c 5.91784,-22.057 20.7124,-30.397 47.88072,-30.397 l 29.32028,0 c 27.16833,0 30.93422,5.11 23.67136,32.279 l -110.55618,412.367 250.43252,0 113.7842,-423.665 c 14.7946,-55.412 -5.1109,-82.581 -60.5235,-82.581 l -208.73861,0 z m 692.65721,0 -111.0941,414.519 c -5.9178,21.789 -20.7125,30.128 -47.8808,30.128 l -29.0513,0 c -27.1682,0 -30.9342,-5.112 -23.6713,-32.28 l 110.2871,-412.367 -250.4326,0 -113.5151,423.934 c -14.7946,55.144 5.1109,82.312 60.2545,82.312 l 208.7386,0 c 34.4311,0 53.7987,-9.415 67.7863,-27.168 l -7.2628,27.168 250.7015,0 135.5726,-506.246 -250.4326,0 z m 361.7957,-192.06 -186.9502,698.306 250.4326,0 187.2192,-698.306 -250.7016,0 z m 587.481,192.06 -248.5496,0 -206.8558,250.433 69.1313,255.813 250.7017,0 L 2314.7825,744.593 2529.17,494.16 Z m 206.5867,216.003 32.8172,-122.124 c 7.2629,-27.169 13.9876,-32.279 41.1559,-32.279 l 55.1436,0 c 27.1684,0 30.9342,5.11 23.6715,32.279 l -32.5482,122.124 -120.24,0 z M 2625.7385,494.16 c -55.4125,0 -89.8436,27.169 -104.6383,82.581 l -91.4577,341.353 c -14.7946,55.144 5.1109,82.312 60.2545,82.312 l 447.8736,0 c 55.4125,0 89.8437,-27.168 104.6383,-82.312 l 23.6714,-88.767 -242.0939,0 -20.7124,77.2 c -7.2628,27.168 -13.9876,32.28 -40.8869,32.28 l -55.4127,0 c -27.1682,0 -30.9341,-5.112 -23.6713,-32.28 l 36.0451,-134.766 362.3337,0 52.1847,-195.02 c 14.7946,-55.412 -5.111,-82.581 -60.2545,-82.581 l -447.8736,0 z"
     class="fil1" /><path
     style="fill:#f8b435;fill-rule:nonzero"
     id="path4718"
     d="m 527.32331,838.472 29.05127,14.794 c 35.50704,76.664 55.14359,118.357 90.38162,195.021 l 107.59729,52.722 -4.3039,11.298 -161.66486,0 -19.90546,-6.187 c 0,0 -194.48204,16.947 -276.52494,-61.599 -36.58306,-35.238 -44.65285,-85.271 -26.36132,-126.158 l 0.269,-0.539 c 8.60772,-18.828 22.86435,-35.775 42.7699,-48.148 L 321.0056,851.922 279.58064,723.343 c -10.75974,-32.279 -19.36754,-56.488 3.76589,-53.261 l -11.56668,-73.973 -6.99385,0.269 -24.74738,-155.209 -11.56667,-6.187 C 221.47809,341.91 231.96883,379.57 189.46794,296.72 l 30.39621,-73.704 55.95059,-19.368 0.80694,12.912 c 104.90734,19.368 209.81467,38.735 314.45301,58.102 l 4.3039,-11.297 c 52.18462,10.221 441.95561,80.967 457.01921,94.147 12.9117,11.029 40.08,51.916 72.6282,105.445 -16.6776,-11.835 -39.542,-18.291 -68.0553,-18.291 -176.45946,0 -352.38095,0 -528.84046,0 l -143.91127,-20.174 5.64884,62.406 123.19887,288.36 c 37.39006,14.526 -6.18685,41.694 14.25663,63.214 z M 278.2357,241.307 l 0.26892,6.456 87.15382,90.382 347.00109,0 -134.49654,-28.244 4.3039,-12.105 C 481.05644,278.966 379.64607,260.136 278.2357,241.307 Z m 144.71827,476.118 -88.76775,-8.877 32.27915,101.41 94.4166,-26.36 -37.928,-66.173 z m -117.01202,-42.5 c 41.96298,8.876 49.76376,5.647 95.76154,5.647 l -127.23376,-220.574 26.63031,135.035 -7.53177,0.269 12.37368,79.623 z"
     class="fil3" /></svg>